<?xml version="1.0" encoding="UTF-8"?>
<svg version="1.1" xmlns="http://www.w3.org/2000/svg" width="1473" height="378">
<path d="M0 0 C486.09 0 972.18 0 1473 0 C1473 124.74 1473 249.48 1473 378 C986.91 378 500.82 378 0 378 C0 253.26 0 128.52 0 0 Z " fill="#FEFEFE" transform="translate(0,0)"/>
<path d="M0 0 C8.4026362 6.71145586 15.72781607 16.30995993 17.33984375 27.21875 C17.38109375 28.12625 17.42234375 29.03375 17.46484375 29.96875 C18.12484375 29.96875 18.78484375 29.96875 19.46484375 29.96875 C19.50609375 28.875625 19.54734375 27.7825 19.58984375 26.65625 C20.94652596 16.13731673 28.63035835 6.77362033 36.58984375 0.21875 C47.43974876 -7.53118215 60.38608724 -10.66182589 73.53125 -8.53515625 C80.19460472 -7.02888066 85.75942944 -4.77075376 91.46484375 -1.03125 C92.15320313 -0.60070312 92.8415625 -0.17015625 93.55078125 0.2734375 C99.29284699 4.16748208 102.81466972 9.13771249 106.46484375 14.96875 C107.25375 16.20238281 107.25375 16.20238281 108.05859375 17.4609375 C118.41480294 35.92951055 111.97646732 63.82057399 106.66992188 82.81396484 C104.93914023 88.34769296 102.83139256 93.67852988 100.46484375 98.96875 C100.15144043 99.67418945 99.83803711 100.37962891 99.51513672 101.10644531 C93.78482647 113.75566092 86.52015313 124.40422239 77.46484375 134.96875 C111.12484375 135.46375 111.12484375 135.46375 145.46484375 135.96875 C145.46484375 144.87875 145.46484375 153.78875 145.46484375 162.96875 C141.01685303 162.92778198 141.01685303 162.92778198 136.47900391 162.88598633 C126.61632277 162.80329317 116.75417163 162.78202721 106.89116859 162.78996754 C100.91837337 162.79293031 94.94708872 162.77602388 88.97460938 162.71166992 C83.19676364 162.65017814 77.4210893 162.64354184 71.64301682 162.67291832 C69.45286671 162.6748032 67.26260615 162.65782895 65.07277298 162.62052345 C50.01755518 162.38064619 40.44275283 164.74446648 28.25211716 173.71069908 C24.84130604 176.11154835 21.85148881 177.97835281 17.64453125 177.94921875 C13.28375654 176.60455726 9.54030446 174.54006936 5.58984375 172.28125 C4.82542969 171.85908203 4.06101562 171.43691406 3.2734375 171.00195312 C-1.99503923 168.03675782 -6.75584204 164.65848972 -11.53515625 160.96875 C-12.46199219 160.31132812 -13.38882813 159.65390625 -14.34375 158.9765625 C-35.4275774 143.87640677 -52.13753416 124.8130179 -62.53515625 100.96875 C-63.03660156 99.83050781 -63.53804687 98.69226563 -64.0546875 97.51953125 C-66.10873544 92.70702124 -67.87743793 87.94190497 -69.53515625 82.96875 C-69.86515625 109.36875 -70.19515625 135.76875 -70.53515625 162.96875 C-81.09515625 162.96875 -91.65515625 162.96875 -102.53515625 162.96875 C-102.53515625 120.06875 -102.53515625 77.16875 -102.53515625 32.96875 C-117.71515625 32.96875 -132.89515625 32.96875 -148.53515625 32.96875 C-148.53515625 24.05875 -148.53515625 15.14875 -148.53515625 5.96875 C-145.97709229 5.97511475 -143.41902832 5.98147949 -140.78344727 5.98803711 C-132.30961004 6.00401517 -123.8361853 5.98149664 -115.36244297 5.94028378 C-110.22718299 5.91648048 -105.09257065 5.9054435 -99.95727539 5.92407227 C-94.99665109 5.94158954 -90.03718739 5.92493166 -85.07670403 5.88507271 C-83.18901506 5.87581425 -81.30122491 5.87864733 -79.41357613 5.89405632 C-67.49281088 6.32922005 -67.49281088 6.32922005 -56.97851562 1.51904297 C-55.80943344 0.3566448 -54.65744236 -0.8236091 -53.53515625 -2.03125 C-36.54250535 -12.44610055 -16.44498317 -11.39799128 0 0 Z " fill="#FC8585" transform="translate(814.53515625,96.03125)"/>
<path d="M0 0 C10.56 0 21.12 0 32 0 C33.87215545 6.86456998 35.65366912 13.62129583 37.125 20.5625 C37.32746338 21.50375732 37.52992676 22.44501465 37.73852539 23.41479492 C38.49620581 26.94237854 39.24863108 30.47106819 40 34 C46.09424284 62.7841791 46.09424284 62.7841791 52.5 91.5 C52.74290771 92.56065674 52.98581543 93.62131348 53.23608398 94.71411133 C53.45723877 95.66439209 53.67839355 96.61467285 53.90625 97.59375 C54.09509766 98.40521484 54.28394531 99.21667969 54.47851562 100.05273438 C54.94615206 102.05948213 54.94615206 102.05948213 56 104 C56.15398254 103.41943344 56.30796509 102.83886688 56.46661377 102.2407074 C58.08911345 96.12341178 59.71175449 90.00615368 61.33447266 83.88891602 C61.93769802 81.61483683 62.54088897 79.34074851 63.14404297 77.06665039 C69.80896924 51.93777829 69.80896924 51.93777829 73 40 C73.44327637 38.34158081 73.44327637 38.34158081 73.89550781 36.6496582 C74.76198888 33.41181811 75.63069164 30.17458203 76.5 26.9375 C76.78230469 25.88240234 77.06460938 24.82730469 77.35546875 23.74023438 C79.48892088 15.80012408 81.74056391 7.9080263 84 0 C96.54 0 109.08 0 122 0 C126.60753849 17.27826932 126.60753849 17.27826932 128.21875 23.55859375 C128.40336792 24.27628433 128.58798584 24.99397491 128.77819824 25.7334137 C129.1615394 27.22429183 129.54455793 28.71525295 129.92724609 30.20629883 C130.49876507 32.43268926 131.07157375 34.65874501 131.64453125 36.88476562 C133.94925917 45.84829654 136.21597742 54.82066026 138.45214844 63.80154419 C139.49154643 67.97251075 140.53522719 72.14240744 141.578125 76.3125 C142.02085011 78.08332914 142.4635584 79.85416248 142.90625 81.625 C143.23689453 82.94757813 143.23689453 82.94757813 143.57421875 84.296875 C145.3828125 91.53125 147.19140625 98.765625 149 106 C150.21491684 102.48345201 151.28834485 99.04471396 152.0078125 95.39453125 C152.27428589 94.07171143 152.27428589 94.07171143 152.54614258 92.72216797 C152.73716553 91.76197754 152.92818848 90.80178711 153.125 89.8125 C155.19634203 79.62741309 157.46701167 69.49932165 159.8125 59.375 C163.22798126 44.62210119 166.40373038 29.82599805 169.47387695 14.99755859 C169.71731339 13.8256044 169.71731339 13.8256044 169.96566772 12.62997437 C170.26925278 11.1669728 170.57121056 9.70363226 170.87124634 8.23989868 C171.45516623 5.42421016 172.08945842 2.73162475 173 0 C183.56 0 194.12 0 205 0 C204.42184064 3.46895613 203.87039447 6.769334 203.0546875 10.16015625 C202.86841797 10.93866943 202.68214844 11.71718262 202.49023438 12.51928711 C202.28720703 13.35854736 202.08417969 14.19780762 201.875 15.0625 C201.55112305 16.41323608 201.55112305 16.41323608 201.22070312 17.79125977 C199.91859113 23.2144468 198.6039627 28.63458936 197.2890625 34.0546875 C196.69255506 36.51558785 196.09620289 38.97652585 195.5 41.4375 C195.0515271 43.28734497 195.0515271 43.28734497 194.59399414 45.17456055 C192.57256775 53.54321065 190.61720527 61.92405488 188.7734375 70.33374023 C187.52653791 75.94535723 186.07689232 81.48661763 184.57695007 87.0357666 C182.77905713 93.7360043 181.18990659 100.48068216 179.62139893 107.23770142 C178.93723243 110.18345334 178.24685242 113.12773977 177.55697632 116.07215881 C177.03613857 118.29553766 176.51602872 120.51908567 175.99609375 122.74267578 C174.54767334 128.93467304 173.09322908 135.12516191 171.625 141.3125 C171.26752686 142.83979736 171.26752686 142.83979736 170.90283203 144.39794922 C170.67966309 145.33525879 170.45649414 146.27256836 170.2265625 147.23828125 C169.94159912 148.445448 169.94159912 148.445448 169.65087891 149.67700195 C168.95047815 152.17674435 167.96413429 154.58966427 167 157 C155.78 157 144.56 157 133 157 C131.80375 152.318125 130.6075 147.63625 129.375 142.8125 C127.01248845 133.60977697 124.61221153 124.43045809 121.9375 115.3125 C119.20023232 105.9755108 116.86415601 96.55303024 114.54150391 87.10546875 C112.7737709 79.95977452 110.86406492 72.89178695 108.71386719 65.8527832 C106.43960602 58.32574321 104.71825147 50.66973702 103 43 C100.12335908 49.08917704 98.50237725 55.291507 96.875 61.8125 C96.25748567 64.2411336 95.63894736 66.669507 95.01953125 69.09765625 C94.8578093 69.73399994 94.69608734 70.37034363 94.52946472 71.02597046 C92.7796392 77.89948732 90.95697419 84.75332588 89.13272095 91.60739136 C86.65483805 100.91805127 84.18803533 110.23115234 81.7890625 119.5625 C81.61074387 120.2559552 81.43242523 120.9494104 81.248703 121.66387939 C80.40872097 124.93363137 79.5718268 128.20412223 78.73852539 131.47558594 C77.16758429 137.61169446 75.54897459 143.73136173 73.83203125 149.828125 C73.50565674 150.98731445 73.17928223 152.14650391 72.84301758 153.34082031 C72 156 72 156 71 157 C68.47905924 157.08847743 65.98569107 157.11527301 63.46484375 157.09765625 C62.33496788 157.09553383 62.33496788 157.09553383 61.18226624 157.09336853 C58.7673044 157.08775376 56.35243399 157.07519883 53.9375 157.0625 C52.30403779 157.0574869 50.67057414 157.05292366 49.03710938 157.04882812 C45.02470415 157.03777954 41.01236759 157.02050506 37 157 C33.7847793 146.03917139 31.0386722 135.02778685 28.5625 123.875 C26.24653809 113.44767667 23.82251989 103.06001083 21.19726562 92.70532227 C18.90834993 83.67639984 16.73326075 74.62230368 14.5703125 65.5625 C13.47039976 60.95600397 12.35976992 56.35224107 11.2421875 51.75 C8.48810334 40.40719817 5.74483136 29.06218619 3.125 17.6875 C2.82033813 16.38196167 2.82033813 16.38196167 2.50952148 15.05004883 C2.23023804 13.82451294 2.23023804 13.82451294 1.9453125 12.57421875 C1.78562988 11.87901123 1.62594727 11.18380371 1.46142578 10.4675293 C0.81384961 7.00453861 0.43697667 3.49581333 0 0 Z " fill="#353535" transform="translate(249,102)"/>
<path d="M0 0 C10.00903399 9.45908707 14.03217286 20.34705291 14.75 33.8125 C7.89016191 34.86978087 1.18216776 34.92889843 -5.75 34.875 C-6.85859375 34.87048828 -7.9671875 34.86597656 -9.109375 34.86132812 C-11.82297399 34.84963158 -14.53645761 34.83324086 -17.25 34.8125 C-17.51192139 34.05904297 -17.77384277 33.30558594 -18.04370117 32.52929688 C-18.39408447 31.53994141 -18.74446777 30.55058594 -19.10546875 29.53125 C-19.44989014 28.55091797 -19.79431152 27.57058594 -20.14916992 26.56054688 C-22.21374258 21.40667022 -24.68311886 18.63867369 -29.6875 16 C-40.43113243 12.41878919 -53.51521442 12.0371214 -64.03125 16.55078125 C-67.59958844 18.57995962 -69.20079271 20.20872166 -71.25 23.8125 C-72.00300918 29.08356427 -70.97827883 32.31100599 -68.25 36.8125 C-60.93788897 42.06991435 -51.93795894 44.31321975 -43.3125 46.4375 C-41.01526839 47.03117387 -38.71838792 47.62620832 -36.421875 48.22265625 C-35.34486328 48.49867676 -34.26785156 48.77469727 -33.15820312 49.05908203 C-15.25512619 53.69716929 3.67325524 58.97580734 13.75 75.8125 C19.92370938 87.82244912 21.17917324 102.49636551 17.125 115.5 C12.18436742 127.78248171 3.98862646 136.91580581 -8.0234375 142.49609375 C-29.35536055 151.19931175 -54.01668351 151.85945321 -75.5625 143.5 C-88.85195845 137.56215686 -97.25575045 129.11765507 -103.25 115.8125 C-105.83014483 108.84446557 -107.44425214 102.17591857 -108.25 94.8125 C-104.39674943 94.30526851 -100.54227297 93.80801801 -96.6875 93.3125 C-95.60146484 93.16941406 -94.51542969 93.02632813 -93.39648438 92.87890625 C-87.97018862 92.18618764 -82.72091369 91.62411847 -77.25 91.8125 C-77.01925781 92.5859375 -76.78851562 93.359375 -76.55078125 94.15625 C-73.31064505 104.50419487 -69.76152722 112.19351653 -60.3125 118.00390625 C-51.35432434 122.46744169 -39.67821519 122.20789305 -30.046875 120.1171875 C-23.43141424 117.7023414 -18.24205516 113.76845281 -14.3125 107.9375 C-12.4178415 102.36497499 -12.61419987 98.51760035 -14.625 93.125 C-19.8804067 85.05898454 -32.36932239 83.08552502 -41 80.75 C-43.36979167 80.09244792 -45.73958333 79.43489583 -48.109375 78.77734375 C-51.72788138 77.77999231 -55.34714121 76.78615532 -58.96972656 75.80371094 C-65.38712845 74.02919559 -71.55899648 72.22076718 -77.5 69.1875 C-78.16620361 68.84831543 -78.83240723 68.50913086 -79.51879883 68.15966797 C-89.48956855 62.81150114 -96.03264797 55.26801858 -100.25 44.8125 C-100.61222656 44.07773438 -100.97445312 43.34296875 -101.34765625 42.5859375 C-104.43411325 33.09942463 -103.3819656 20.33485408 -98.98046875 11.51953125 C-91.49210353 -0.1947737 -81.26397599 -7.87361134 -67.89453125 -11.6796875 C-45.17720807 -16.04195044 -18.39649042 -15.50327383 0 0 Z " fill="#343434" transform="translate(631.25,113.1875)"/>
<path d="M0 0 C35.64 0 71.28 0 108 0 C108 8.91 108 17.82 108 27 C70.38 27.495 70.38 27.495 32 28 C31.67 40.21 31.34 52.42 31 65 C56.41 65 81.82 65 108 65 C108 73.91 108 82.82 108 92 C70.38 92.495 70.38 92.495 32 93 C31.67 105.21 31.34 117.42 31 130 C56.41 130 81.82 130 108 130 C108 138.91 108 147.82 108 157 C98.49594379 157.15559598 88.99183962 157.30454831 79.48751736 157.4429636 C75.0704646 157.50753224 70.65348465 157.57460247 66.23657227 157.64819336 C61.94419949 157.71960374 57.65176558 157.78339677 53.35920906 157.84269524 C51.75200609 157.86608581 50.14483526 157.89186284 48.53771782 157.92053413 C32.31355921 158.20656893 16.25814731 157.52445636 0 157 C0 105.19 0 53.38 0 0 Z " fill="#353535" transform="translate(1177,102)"/>
<path d="M0 0 C35.64 0 71.28 0 108 0 C108 8.91 108 17.82 108 27 C82.92 27 57.84 27 32 27 C32 39.21 32 51.42 32 64 C53.45 64 74.9 64 97 64 C97 72.58 97 81.16 97 90 C75.55 90 54.1 90 32 90 C32 112.11 32 134.22 32 157 C21.44 157 10.88 157 0 157 C0 105.19 0 53.38 0 0 Z " fill="#363636" transform="translate(1043,102)"/>
<path d="M0 0 C41.25 0 82.5 0 125 0 C125 8.91 125 17.82 125 27 C109.49 27 93.98 27 78 27 C78 69.9 78 112.8 78 157 C67.44 157 56.88 157 46 157 C46 114.1 46 71.2 46 27 C30.82 27 15.64 27 0 27 C0 18.09 0 9.18 0 0 Z " fill="#363636" transform="translate(119,102)"/>
<path d="M0 0 C10.23 0 20.46 0 31 0 C31 42.57 31 85.14 31 129 C57.07 129 83.14 129 110 129 C110 137.58 110 146.16 110 155 C73.7 155 37.4 155 0 155 C0 103.85 0 52.7 0 0 Z " fill="#333232" transform="translate(850,104)"/>
<path d="M0 0 C27.72 0 55.44 0 84 0 C82.87287768 2.25424465 81.73528013 4.50354322 80.5625 6.734375 C80.046875 7.72953125 79.53125 8.7246875 79 9.75 C78.2265625 11.22726563 78.2265625 11.22726563 77.4375 12.734375 C74.5255902 19.34947445 73.6380064 25.5604828 73.6875 32.75 C73.68951416 33.55840332 73.69152832 34.36680664 73.69360352 35.19970703 C73.85348439 45.16976327 75.1198046 55.39862115 77.51721191 65.09101868 C78.15718441 68.94709569 78.13092874 72.74959494 78.11352539 76.64575195 C78.11367142 77.5047963 78.11381744 78.36384064 78.1139679 79.24891663 C78.11327312 82.07873082 78.10550111 84.9084786 78.09765625 87.73828125 C78.09579052 89.70411646 78.09436735 91.66995213 78.09336853 93.63578796 C78.08955553 98.80279836 78.07973562 103.96978052 78.06866455 109.13677979 C78.05842427 114.41214618 78.0538653 119.68751715 78.04882812 124.96289062 C78.03811226 135.30860813 78.02052531 145.6542973 78 156 C67.44 156 56.88 156 46 156 C46 113.1 46 70.2 46 26 C30.82 26 15.64 26 0 26 C0 17.42 0 8.84 0 0 Z " fill="#353434" transform="translate(666,103)"/>
<path d="M0 0 C0.68835938 0.43054688 1.37671875 0.86109375 2.0859375 1.3046875 C7.82800324 5.19873208 11.34982597 10.16896249 15 16 C15.78890625 17.23363281 15.78890625 17.23363281 16.59375 18.4921875 C26.94995919 36.96076055 20.51162357 64.85182399 15.20507812 83.84521484 C13.47429648 89.37894296 11.36654881 94.70977988 9 100 C8.68659668 100.70543945 8.37319336 101.41087891 8.05029297 102.13769531 C2.31998272 114.78691092 -4.94469062 125.43547239 -14 136 C19.66 136.495 19.66 136.495 54 137 C54 137.33 54 137.66 54 138 C27.93 138 1.86 138 -25 138 C-25 95.1 -25 52.2 -25 8 C-44.15033013 6.92052845 -44.15033013 6.92052845 -62 11 C-62.73080266 12.97746603 -63.39421747 14.98072489 -64 17 C-65.5 19.375 -65.5 19.375 -67 21 C-67.66 21 -68.32 21 -69 21 C-66.6561776 10.84343628 -58.30428162 3.6254811 -50 -2 C-34.07789093 -11.0180685 -15.21480006 -9.97224723 0 0 Z " fill="#F99494" transform="translate(906,95)"/>
<path d="M0 0 C10.56 0 21.12 0 32 0 C32 51.81 32 103.62 32 157 C21.44 157 10.88 157 0 157 C0 105.19 0 53.38 0 0 Z " fill="#353535" transform="translate(469,102)"/>
<path d="M0 0 C10.23 0 20.46 0 31 0 C31 51.48 31 102.96 31 156 C20.77 156 10.54 156 0 156 C0 104.52 0 53.04 0 0 Z " fill="#323232" transform="translate(982,103)"/>
<path d="M0 0 C4.99847026 4.27040177 5.67770904 10.94872268 6.17724609 17.22802734 C6.77142848 29.43509073 5.42385145 41.05387499 3 53 C2.67 53 2.34 53 2 53 C1.97258088 51.4584364 1.95341752 49.91672526 1.9375 48.375 C1.92589844 47.51648438 1.91429687 46.65796875 1.90234375 45.7734375 C2 43 2 43 2.4934082 40.20336914 C3.34124823 34.84215999 3.22588084 29.48026603 3.25 24.0625 C3.270625 22.90814453 3.29125 21.75378906 3.3125 20.56445312 C3.34195926 14.14601734 2.89181745 9.71514449 0 4 C0 2.68 0 1.36 0 0 Z " fill="#F2ACAC" transform="translate(921,113)"/>
<path d="M0 0 C3.3 0 6.6 0 10 0 C6.83969365 3.16030635 3.50062607 5.2543689 -0.3125 7.5 C-0.96412109 7.89058594 -1.61574219 8.28117187 -2.28710938 8.68359375 C-13.05700337 15.0873145 -13.05700337 15.0873145 -17.375 14.6875 C-18.24125 14.460625 -19.1075 14.23375 -20 14 C-20 13.67 -20 13.34 -20 13 C-14.555 12.01 -14.555 12.01 -9 11 C-9 10.34 -9 9.68 -9 9 C-7.35 8.67 -5.7 8.34 -4 8 C-4 7.34 -4 6.68 -4 6 C-1.5 4.375 -1.5 4.375 1 3 C0.67 2.01 0.34 1.02 0 0 Z " fill="#EE989A" transform="translate(849,259)"/>
<path d="M0 0 C0 5.22148252 -2.47565799 10.16919347 -6 14 C-6.66 14 -7.32 14 -8 14 C-6.58036591 8.32146365 -3.60636039 4.46825784 0 0 Z " fill="#F39B9C" transform="translate(845,102)"/>
<path d="M0 0 C3.65866294 4.32387438 5 8.34923902 5 14 C5.66 14 6.32 14 7 14 C7 15.32 7 16.64 7 18 C6.34 18 5.68 18 5 18 C4.15875684 15.75267898 3.32685168 13.50261215 2.5 11.25 C2.26152344 10.61578125 2.02304687 9.9815625 1.77734375 9.328125 C0.55198242 5.96713393 0 3.63128413 0 0 Z " fill="#F3A1A2" transform="translate(827,112)"/>
<path d="M0 0 C1 3 1 3 -0.43359375 6.13671875 C-1.09135973 7.3260128 -1.75977815 8.50946371 -2.4375 9.6875 C-2.77587891 10.29400391 -3.11425781 10.90050781 -3.46289062 11.52539062 C-4.29957915 13.0220025 -5.14862831 14.51169189 -6 16 C-7.25541557 12.23375329 -6.37061958 10.62811066 -5 7 C-4.34 7 -3.68 7 -3 7 C-2.690625 6.030625 -2.38125 5.06125 -2.0625 4.0625 C-1 1 -1 1 0 0 Z " fill="#F1A2A4" transform="translate(912,197)"/>
<path d="M0 0 C2.05883923 4.11767846 2.96165128 7.54993405 4 12 C2.68 11.34 1.36 10.68 0 10 C0 6.7 0 3.4 0 0 Z " fill="#FDE9E6" transform="translate(744,175)"/>
<path d="M0 0 C0.66 0.33 1.32 0.66 2 1 C0.68 3.64 -0.64 6.28 -2 9 C-2.66 9 -3.32 9 -4 9 C-4.8125 7.3125 -4.8125 7.3125 -5 5 C-2.5625 2.25 -2.5625 2.25 0 0 Z " fill="#4C3030" transform="translate(745,108)"/>
<path d="M0 0 C0.66 0.33 1.32 0.66 2 1 C1.67 1.99 1.34 2.98 1 4 C-2.0625 5.1875 -2.0625 5.1875 -5 6 C-4.75 4.125 -4.75 4.125 -4 2 C-2.0625 0.6875 -2.0625 0.6875 0 0 Z " fill="#F49A9B" transform="translate(858,92)"/>
<path d="M0 0 C2.7710688 2.34591852 3.52059284 4.14776201 4.1875 7.6875 C4.34605469 8.49574219 4.50460937 9.30398437 4.66796875 10.13671875 C4.77753906 10.75160156 4.88710938 11.36648437 5 12 C1.70343678 10.35171839 1.24171391 7.33005093 0 4 C0 2.68 0 1.36 0 0 Z " fill="#F2ABAC" transform="translate(921,113)"/>
<path d="M0 0 C0.97791242 2.64036353 1.03638105 3.87266632 0.25 6.625 C-1 9 -1 9 -4 11 C-3.52269162 9.5410574 -3.04308958 8.08286504 -2.5625 6.625 C-2.29566406 5.81289062 -2.02882813 5.00078125 -1.75390625 4.1640625 C-1 2 -1 2 0 0 Z " fill="#FEE7E3" transform="translate(917,188)"/>
</svg>
